<svg width="1920" height="1787" viewBox="0 0 1920 1787" fill="none" xmlns="http://www.w3.org/2000/svg">
<g filter="url(#filter0_f_57_86)">
<path fill-rule="evenodd" clip-rule="evenodd" d="M1489.97 252.563C1563.38 263.511 1575.07 363.768 1623.35 420.135C1645.18 445.627 1678.23 457.847 1692.01 488.453C1708.56 525.212 1711.95 564.047 1706.1 603.933C1695.13 678.732 1710.43 776.422 1644.37 813.184C1577.91 850.169 1499.72 791.639 1432.39 756.25C1361.71 719.094 1281.9 684.026 1255.38 608.705C1227.65 529.979 1250.97 441.145 1296.88 371.443C1340.1 305.824 1412.26 240.972 1489.97 252.563Z" fill="#081D86" fill-opacity="0.3"/>
</g>
<g filter="url(#filter1_f_57_86)">
<path fill-rule="evenodd" clip-rule="evenodd" d="M457.563 737.079C530.967 748.027 542.663 848.285 590.942 904.651C612.776 930.143 645.825 942.364 659.605 972.97C676.154 1009.73 679.543 1048.56 673.691 1088.45C662.717 1163.25 678.021 1260.94 611.961 1297.7C545.501 1334.69 467.308 1276.16 399.985 1240.77C329.301 1203.61 249.492 1168.54 222.967 1093.22C195.242 1014.5 218.557 925.661 264.471 855.959C307.694 790.341 379.847 725.488 457.563 737.079Z" fill="#081D86" fill-opacity="0.3"/>
</g>
<g filter="url(#filter2_f_57_86)">
<path fill-rule="evenodd" clip-rule="evenodd" d="M963.014 455.775C1036.42 466.722 1048.11 566.98 1096.39 623.347C1118.23 648.839 1151.28 661.059 1165.06 691.665C1181.61 728.424 1184.99 767.259 1179.14 807.145C1168.17 881.944 1183.47 979.634 1117.41 1016.4C1050.95 1053.38 972.759 994.851 905.436 959.462C834.753 922.306 754.943 887.237 728.418 811.917C700.694 733.191 724.008 644.357 769.922 574.655C813.145 509.036 885.299 444.184 963.014 455.775Z" fill="#081D86" fill-opacity="0.3"/>
</g>
<defs>
<filter id="filter0_f_57_86" x="766.445" y="-225.78" width="1419.31" height="1527.76" filterUnits="userSpaceOnUse" color-interpolation-filters="sRGB">
<feFlood flood-opacity="0" result="BackgroundImageFix"/>
<feBlend mode="normal" in="SourceGraphic" in2="BackgroundImageFix" result="shape"/>
<feGaussianBlur stdDeviation="238.495" result="effect1_foregroundBlur_57_86"/>
</filter>
<filter id="filter1_f_57_86" x="-265.964" y="258.737" width="1419.31" height="1527.76" filterUnits="userSpaceOnUse" color-interpolation-filters="sRGB">
<feFlood flood-opacity="0" result="BackgroundImageFix"/>
<feBlend mode="normal" in="SourceGraphic" in2="BackgroundImageFix" result="shape"/>
<feGaussianBlur stdDeviation="238.495" result="effect1_foregroundBlur_57_86"/>
</filter>
<filter id="filter2_f_57_86" x="239.487" y="-22.568" width="1419.31" height="1527.76" filterUnits="userSpaceOnUse" color-interpolation-filters="sRGB">
<feFlood flood-opacity="0" result="BackgroundImageFix"/>
<feBlend mode="normal" in="SourceGraphic" in2="BackgroundImageFix" result="shape"/>
<feGaussianBlur stdDeviation="238.495" result="effect1_foregroundBlur_57_86"/>
</filter>
</defs>
</svg>
