<svg width="52" height="52" viewBox="0 0 52 52" fill="none" xmlns="http://www.w3.org/2000/svg">
<path d="M31.2894 12.2607C31.7404 14.1721 33.4568 15.596 35.5063 15.596C37.8991 15.596 39.839 13.6561 39.839 11.2633C39.839 8.87051 37.8991 6.93066 35.5063 6.93066C33.4141 6.93066 31.6693 8.41348 31.263 10.3858C27.7591 10.7616 25.023 13.7333 25.023 17.3347C25.023 17.3429 25.023 17.3489 25.023 17.3571C21.2124 17.5175 17.7329 18.6022 14.9704 20.3146C13.9446 19.5204 12.6568 19.0471 11.2593 19.0471C7.90568 19.0471 5.18787 21.7649 5.18787 25.1185C5.18787 27.5519 6.61787 29.6482 8.68365 30.6171C8.88474 37.6655 16.5649 43.3347 26.0122 43.3347C35.4596 43.3347 43.1499 37.6594 43.3408 30.6049C45.3904 29.6299 46.8082 27.5397 46.8082 25.1205C46.8082 21.7669 44.0904 19.0491 40.7368 19.0491C39.3454 19.0491 38.0636 19.5183 37.0399 20.3064C34.253 18.5819 30.7349 17.4972 26.8857 17.353C26.8857 17.3469 26.8857 17.3429 26.8857 17.3368C26.8857 14.7571 28.8032 12.6161 31.2894 12.2647V12.2607ZM14.7266 28.9718C14.8282 26.7699 16.2907 25.0799 17.9908 25.0799C19.691 25.0799 20.991 26.8654 20.8894 29.0672C20.7879 31.2691 19.5183 32.0694 17.8161 32.0694C16.114 32.0694 14.6251 31.1736 14.7266 28.9718ZM34.0357 25.0799C35.7379 25.0799 37.2004 26.7699 37.2999 28.9718C37.4015 31.1736 35.9105 32.0694 34.2104 32.0694C32.5102 32.0694 31.2386 31.2711 31.1371 29.0672C31.0355 26.8654 32.3335 25.0799 34.0357 25.0799ZM32.0126 34.0661C32.3315 34.0986 32.5346 34.4297 32.4107 34.7263C31.3646 37.2268 28.8946 38.9838 26.0122 38.9838C23.1299 38.9838 20.6619 37.2268 19.6138 34.7263C19.4899 34.4297 19.693 34.0986 20.0119 34.0661C21.8807 33.8772 23.9018 33.7736 26.0122 33.7736C28.1227 33.7736 30.1418 33.8772 32.0126 34.0661Z" fill="#3C94FE"/>
</svg>
