<svg width="52" height="52" viewBox="0 0 52 52" fill="none" xmlns="http://www.w3.org/2000/svg">
<path d="M31.2891 12.2605C31.74 14.1719 33.4564 15.5959 35.5059 15.5959C37.8988 15.5959 39.8386 13.656 39.8386 11.2632C39.8386 8.87039 37.8988 6.93054 35.5059 6.93054C33.4138 6.93054 31.6689 8.41336 31.2627 10.3857C27.7588 10.7615 25.0227 13.7332 25.0227 17.3346C25.0227 17.3427 25.0227 17.3488 25.0227 17.3569C21.212 17.5174 17.7325 18.6021 14.97 20.3145C13.9442 19.5202 12.6564 19.0469 11.2589 19.0469C7.90531 19.0469 5.1875 21.7648 5.1875 25.1184C5.1875 27.5518 6.6175 29.648 8.68328 30.617C8.88438 37.6654 16.5645 43.3346 26.0119 43.3346C35.4592 43.3346 43.1495 37.6593 43.3405 30.6048C45.39 29.6298 46.8078 27.5396 46.8078 25.1204C46.8078 21.7668 44.09 19.049 40.7364 19.049C39.345 19.049 38.0633 19.5182 37.0395 20.3063C34.2527 18.5818 30.7345 17.4971 26.8853 17.3529C26.8853 17.3468 26.8853 17.3427 26.8853 17.3366C26.8853 14.7569 28.8028 12.616 31.2891 12.2646V12.2605ZM14.7263 28.9716C14.8278 26.7698 16.2903 25.0798 17.9905 25.0798C19.6906 25.0798 20.9906 26.8652 20.8891 29.0671C20.7875 31.269 19.518 32.0693 17.8158 32.0693C16.1136 32.0693 14.6247 31.1735 14.7263 28.9716ZM34.0353 25.0798C35.7375 25.0798 37.2 26.7698 37.2995 28.9716C37.4011 31.1735 35.9102 32.0693 34.21 32.0693C32.5098 32.0693 31.2383 31.271 31.1367 29.0671C31.0352 26.8652 32.3331 25.0798 34.0353 25.0798ZM32.0122 34.066C32.3311 34.0985 32.5342 34.4296 32.4103 34.7262C31.3642 37.2266 28.8942 38.9837 26.0119 38.9837C23.1295 38.9837 20.6616 37.2266 19.6134 34.7262C19.4895 34.4296 19.6927 34.0985 20.0116 34.066C21.8803 33.8771 23.9014 33.7735 26.0119 33.7735C28.1223 33.7735 30.1414 33.8771 32.0122 34.066Z" fill="#3C94FE"/>
</svg>
