<svg width="50" height="50" viewBox="0 0 50 50" fill="none" xmlns="http://www.w3.org/2000/svg">
<g clip-path="url(#clip0_57_364)">
<path d="M49.8874 2.14339C50.0011 1.85944 50.0289 1.54838 49.9674 1.24876C49.906 0.949148 49.7579 0.674161 49.5416 0.45789C49.3254 0.24162 49.0504 0.0935779 48.7508 0.0321171C48.4512 -0.0293437 48.1401 -0.00152022 47.8562 0.112138L2.39678 18.2965H2.39365L0.981152 18.859C0.713621 18.9657 0.480794 19.1443 0.308388 19.375C0.135982 19.6058 0.0307078 19.8797 0.00419365 20.1665C-0.0223205 20.4533 0.0309574 20.7418 0.158142 21.0003C0.285327 21.2587 0.481469 21.4769 0.724902 21.6309L2.00615 22.4434L2.00928 22.4496L17.6187 32.3809L27.5499 47.9903L27.5562 47.9965L28.3687 49.2778C28.5231 49.5203 28.7415 49.7154 28.9997 49.8418C29.2579 49.9682 29.546 50.0209 29.8323 49.9941C30.1185 49.9673 30.3918 49.862 30.6221 49.6898C30.8524 49.5177 31.0307 49.2854 31.1374 49.0184L49.8874 2.14339ZM44.1593 8.04964L20.7405 31.4684L20.0687 30.4121C19.9455 30.2183 19.7812 30.054 19.5874 29.9309L18.5312 29.259L41.9499 5.84026L45.6312 4.36839L44.1593 8.04964Z" fill="#3176CB"/>
</g>
<defs>
<clipPath id="clip0_57_364">
<rect width="50" height="50" fill="white"/>
</clipPath>
</defs>
</svg>
