<svg width="50" height="50" viewBox="0 0 50 50" fill="none" xmlns="http://www.w3.org/2000/svg">
<g clip-path="url(#clip0_57_122)">
<path d="M49.8875 2.14314C50.0012 1.85919 50.029 1.54813 49.9675 1.24852C49.9061 0.948904 49.758 0.673917 49.5418 0.457646C49.3255 0.241376 49.0505 0.0933338 48.7509 0.031873C48.4513 -0.0295878 48.1402 -0.00176436 47.8563 0.111894L2.3969 18.2963H2.39377L0.981274 18.8588C0.713743 18.9655 0.480916 19.1441 0.30851 19.3748C0.136104 19.6055 0.0308299 19.8794 0.00431572 20.1662C-0.0221985 20.453 0.0310794 20.7416 0.158264 21C0.285449 21.2584 0.481591 21.4767 0.725024 21.6306L2.00627 22.4431L2.0094 22.4494L17.6188 32.3806L27.55 47.99L27.5563 47.9963L28.3688 49.2775C28.5232 49.52 28.7416 49.7152 28.9998 49.8416C29.2581 49.968 29.5462 50.0206 29.8324 49.9938C30.1187 49.967 30.3919 49.8617 30.6222 49.6896C30.8525 49.5174 31.0308 49.2851 31.1375 49.0181L49.8875 2.14314ZM44.1594 8.04939L20.7406 31.4681L20.0688 30.4119C19.9457 30.2181 19.7814 30.0538 19.5875 29.9306L18.5313 29.2588L41.95 5.84002L45.6313 4.36814L44.1594 8.04939Z" fill="#3176CB"/>
</g>
<defs>
<clipPath id="clip0_57_122">
<rect width="50" height="50" fill="white"/>
</clipPath>
</defs>
</svg>
