<svg width="37" height="37" viewBox="0 0 37 37" fill="none" xmlns="http://www.w3.org/2000/svg">
<path fill-rule="evenodd" clip-rule="evenodd" d="M18.4999 21.7712L26.6753 29.9466C27.1091 30.3804 27.6975 30.6241 28.311 30.6241C28.9245 30.6241 29.5129 30.3804 29.9467 29.9466C30.3806 29.5128 30.6243 28.9244 30.6243 28.3109C30.6243 27.6974 30.3806 27.109 29.9467 26.6752L21.7682 18.4997L29.9452 10.3243C30.1599 10.1095 30.3302 9.85449 30.4464 9.57387C30.5625 9.29326 30.6223 8.99251 30.6222 8.6888C30.6221 8.38509 30.5622 8.08437 30.4459 7.80381C30.3296 7.52325 30.1592 7.26834 29.9444 7.05364C29.7296 6.83894 29.4746 6.66864 29.194 6.55249C28.9134 6.43633 28.6127 6.37658 28.3089 6.37665C28.0052 6.37672 27.7045 6.43661 27.424 6.5529C27.1434 6.66919 26.8885 6.83961 26.6738 7.05441L18.4999 15.2299L10.3244 7.05441C10.1112 6.83344 9.8561 6.65715 9.57403 6.53583C9.29195 6.4145 8.98854 6.35057 8.68149 6.34775C8.37444 6.34494 8.0699 6.40331 7.78565 6.51945C7.5014 6.63559 7.24312 6.80718 7.0259 7.0242C6.80867 7.24122 6.63684 7.49934 6.52043 7.78348C6.40402 8.06762 6.34536 8.3721 6.34789 8.67915C6.35041 8.98621 6.41406 9.28968 6.53512 9.57187C6.65618 9.85406 6.83223 10.1093 7.05299 10.3227L15.2315 18.4997L7.05454 26.6767C6.83377 26.8902 6.65772 27.1454 6.53666 27.4276C6.4156 27.7098 6.35195 28.0133 6.34943 28.3203C6.34691 28.6274 6.40556 28.9319 6.52197 29.216C6.63838 29.5001 6.81021 29.7583 7.02744 29.9753C7.24467 30.1923 7.50294 30.3639 7.78719 30.48C8.07144 30.5962 8.37598 30.6545 8.68303 30.6517C8.99008 30.6489 9.29349 30.585 9.57557 30.4637C9.85765 30.3423 10.1127 30.166 10.326 29.9451L18.4999 21.7712Z" fill="#EAF3FE"/>
</svg>
