<svg width="52" height="52" viewBox="0 0 52 52" fill="none" xmlns="http://www.w3.org/2000/svg">
<path d="M31.2896 12.2607C31.7405 14.1721 33.4569 15.596 35.5064 15.596C37.8992 15.596 39.8391 13.6561 39.8391 11.2633C39.8391 8.87051 37.8992 6.93066 35.5064 6.93066C33.4142 6.93066 31.6694 8.41348 31.2631 10.3858C27.7592 10.7616 25.0231 13.7333 25.0231 17.3347C25.0231 17.3429 25.0231 17.3489 25.0231 17.3571C21.2125 17.5175 17.733 18.6022 14.9705 20.3146C13.9447 19.5204 12.6569 19.0471 11.2594 19.0471C7.9058 19.0471 5.18799 21.7649 5.18799 25.1185C5.18799 27.5519 6.61799 29.6482 8.68377 30.6171C8.88486 37.6655 16.565 43.3347 26.0124 43.3347C35.4597 43.3347 43.15 37.6594 43.341 30.6049C45.3905 29.6299 46.8083 27.5397 46.8083 25.1205C46.8083 21.7669 44.0905 19.0491 40.7369 19.0491C39.3455 19.0491 38.0638 19.5183 37.04 20.3064C34.2531 18.5819 30.735 17.4972 26.8858 17.353C26.8858 17.3469 26.8858 17.3429 26.8858 17.3368C26.8858 14.7571 28.8033 12.6161 31.2896 12.2647V12.2607ZM14.7267 28.9718C14.8283 26.7699 16.2908 25.0799 17.991 25.0799C19.6911 25.0799 20.9911 26.8654 20.8896 29.0672C20.788 31.2691 19.5185 32.0694 17.8163 32.0694C16.1141 32.0694 14.6252 31.1736 14.7267 28.9718ZM34.0358 25.0799C35.738 25.0799 37.2005 26.7699 37.3 28.9718C37.4016 31.1736 35.9106 32.0694 34.2105 32.0694C32.5103 32.0694 31.2388 31.2711 31.1372 29.0672C31.0356 26.8654 32.3336 25.0799 34.0358 25.0799ZM32.0127 34.0661C32.3316 34.0986 32.5347 34.4297 32.4108 34.7263C31.3647 37.2268 28.8947 38.9838 26.0124 38.9838C23.13 38.9838 20.6621 37.2268 19.6139 34.7263C19.49 34.4297 19.6931 34.0986 20.0121 34.0661C21.8808 33.8772 23.9019 33.7736 26.0124 33.7736C28.1228 33.7736 30.1419 33.8772 32.0127 34.0661Z" fill="#3C94FE"/>
</svg>
