<svg width="52" height="52" viewBox="0 0 52 52" fill="none" xmlns="http://www.w3.org/2000/svg">
<path d="M31.2894 12.2607C31.7403 14.1721 33.4567 15.596 35.5062 15.596C37.8991 15.596 39.8389 13.6561 39.8389 11.2633C39.8389 8.87051 37.8991 6.93066 35.5062 6.93066C33.4141 6.93066 31.6692 8.41348 31.263 10.3858C27.7591 10.7616 25.023 13.7333 25.023 17.3347C25.023 17.3429 25.023 17.3489 25.023 17.3571C21.2123 17.5175 17.7328 18.6022 14.9703 20.3146C13.9445 19.5204 12.6567 19.0471 11.2592 19.0471C7.90562 19.0471 5.18781 21.7649 5.18781 25.1185C5.18781 27.5519 6.61781 29.6482 8.68359 30.6171C8.88468 37.6655 16.5648 43.3347 26.0122 43.3347C35.4595 43.3347 43.1498 37.6594 43.3408 30.6049C45.3903 29.6299 46.8081 27.5397 46.8081 25.1205C46.8081 21.7669 44.0903 19.0491 40.7367 19.0491C39.3453 19.0491 38.0636 19.5183 37.0398 20.3064C34.253 18.5819 30.7348 17.4972 26.8856 17.353C26.8856 17.3469 26.8856 17.3429 26.8856 17.3368C26.8856 14.7571 28.8031 12.6161 31.2894 12.2647V12.2607ZM14.7266 28.9718C14.8281 26.7699 16.2906 25.0799 17.9908 25.0799C19.6909 25.0799 20.9909 26.8654 20.8894 29.0672C20.7878 31.2691 19.5183 32.0694 17.8161 32.0694C16.1139 32.0694 14.625 31.1736 14.7266 28.9718ZM34.0356 25.0799C35.7378 25.0799 37.2003 26.7699 37.2998 28.9718C37.4014 31.1736 35.9105 32.0694 34.2103 32.0694C32.5102 32.0694 31.2386 31.2711 31.137 29.0672C31.0355 26.8654 32.3334 25.0799 34.0356 25.0799ZM32.0125 34.0661C32.3314 34.0986 32.5345 34.4297 32.4106 34.7263C31.3645 37.2268 28.8945 38.9838 26.0122 38.9838C23.1298 38.9838 20.6619 37.2268 19.6137 34.7263C19.4898 34.4297 19.693 34.0986 20.0119 34.0661C21.8806 33.8772 23.9017 33.7736 26.0122 33.7736C28.1227 33.7736 30.1417 33.8772 32.0125 34.0661Z" fill="#3C94FE"/>
</svg>
